# xmcd CD database file
#
# Track frame offsets:
#	150
#	15015
#	33547
#	47306
#	61066
#	77432
#	85239
#	97129
#	112092
#	134447
#	153708
#	168425
#	185020
#	214405
#	231963
#	244377
#	262415
#	278478
#	291749
#	303440
#
# Disc length: 4171 seconds
#
# Revision: 0
# Processed by: cddbd v1.5.2PL0 Copyright (c) Steve Scherf et al.
# Submitted via: CDex 1.79
#
DISCID=25104914
DTITLE=Ella Fitzgerald - The Absolutely Essential Collection Disc 3 of 3
DYEAR=2018
DGENRE=Jazz
TTITLE0=My One and Only
TTITLE1=Dancing on the Ceiling
TTITLE2=Dream a Little Dream of Me
TTITLE3=Black Coffee
TTITLE4=Begin the Beguine
TTITLE5=All of You
TTITLE6=Nice Work If You Can Get It
TTITLE7=Undecided
TTITLE8=Summertime
TTITLE9=Under a Blanket of Blue
TTITLE10=But Not for Me
TTITLE11=Moonlight in Vermont
TTITLE12=April in Paris
TTITLE13=My Funny Valentine
TTITLE14=With a Song in My Heart
TTITLE15=Stardust
TTITLE16=Let's Do It (Let's Fall in Love)
TTITLE17=I Got It Bad (And That Ain't Good)
TTITLE18=It's Only a Paper Moon
TTITLE19=Solitude
EXTD=YEAR: 2018
EXTT0=
EXTT1=
EXTT2=
EXTT3=
EXTT4=
EXTT5=
EXTT6=
EXTT7=
EXTT8=
EXTT9=
EXTT10=
EXTT11=
EXTT12=
EXTT13=
EXTT14=
EXTT15=
EXTT16=
EXTT17=
EXTT18=
EXTT19=
PLAYORDER=
